# xmcd CD database file
#
# Track frame offsets:
#	150
#	30062
#	51137
#	69262
#	83832
#	97420
#	113337
#	134442
#	148060
#	151055
#	167125
#	184482
#	197855
#	216034
#
# Disc length: 3162 seconds
#
# Revision: 0
# Processed by: cddbd v1.5.2PL0 Copyright (c) Steve Scherf et al.
# Submitted via: CDex 1.51
#
DISCID=bf0c580e
DTITLE=Ben Wolfe - Bagdad Theater
DYEAR=1997
DGENRE=Jazz
TTITLE0=Agent Jones
TTITLE1=Bagdad Theater
TTITLE2=Part 111
TTITLE3=Tristano
TTITLE4=Three For Mags
TTITLE5=Rufus T. Firefly
TTITLE6=Luke And Leonie
TTITLE7=Like A Two-Step
TTITLE8=Interlude 1
TTITLE9=Frauds, Phonies, and Ballhogs
TTITLE10=Another Poet
TTITLE11=Tuesday Past
TTITLE12=Old A Flat
TTITLE13=Host Orion
EXTD=YEAR: 1997
EXTT0=
EXTT1=
EXTT2=
EXTT3=
EXTT4=
EXTT5=
EXTT6=
EXTT7=
EXTT8=
EXTT9=
EXTT10=
EXTT11=
EXTT12=
EXTT13=
PLAYORDER=
